<svg version="1.0" xmlns="http://www.w3.org/2000/svg" width="200.000000pt" height="200.000000pt" viewBox="0 0 200.000000 200.000000" preserveAspectRatio="xMidYMid meet" style="width: 535.8px; height: auto;"> <g transform="translate(0.000000,200.000000) scale(0.100000,-0.100000)" fill="#000000" stroke="none" style="--darkreader-inline-fill: var(--darkreader-background-000000, #000000); --darkreader-inline-stroke: none;" data-darkreader-inline-fill="" data-darkreader-inline-stroke=""> <path d="M723 1835 c-92 -43 -342 -210 -378 -253 -34 -40 -147 -312 -199 -478 l-39 -121 44 -162 c37 -141 52 -178 114 -291 l70 -129 144 -102 c130 -92 154 -105 250 -135 104 -33 110 -34 283 -34 l178 0 72 32 c84 37 362 218 395 257 32 37 156 334 199 478 l37 121 -44 159 c-36 133 -54 179 -114 291 l-72 132 -141 101 c-122 87 -154 105 -243 134 l-103 35 -190 -1 -191 -1 -72 -33z m490 -69 l57 -65 -92 -66 -93 -66 -170 0 -170 0 -56 63 -57 62 91 68 90 68 172 0 171 0 57 -64z m95 19 c70 -23 316 -197 300 -213 -8 -8 -49 8 -147 60 -75 39 -144 78 -155 87 -31 27 -82 95 -66 89 8 -3 39 -13 68 -23z m-638 -25 c-53 -49 -126 -93 -143 -86 -7 3 -2 8 10 11 13 4 20 11 17 16 -3 5 -2 9 3 8 18 -3 53 14 53 26 0 7 12 18 28 23 15 6 36 17 47 26 36 28 29 17 -15 -24z m-8 -154 l57 -62 -61 -147 -61 -147 -125 -72 -125 -71 -59 61 -60 62 63 152 64 152 120 68 c66 37 122 67 125 67 3 -1 31 -29 62 -63z m783 -9 l139 -73 43 -149 c24 -81 42 -149 41 -150 -87 -61 -184 -125 -190 -125 -5 0 -70 33 -145 74 l-137 74 -42 143 c-24 79 -40 147 -36 151 13 13 177 128 182 128 3 0 68 -33 145 -73z m-947 49 c-18 -13 -110 -56 -103 -48 6 5 27 19 47 30 21 10 34 22 31 26 -4 4 1 4 10 0 10 -3 17 -7 15 -8z m1208 -209 c49 -90 70 -141 102 -261 23 -82 39 -153 36 -158 -7 -11 -24 -10 -24 1 0 5 -23 51 -52 102 -37 68 -65 138 -98 250 -43 144 -49 179 -32 179 4 0 35 -51 68 -113z m-591 -54 l42 -141 -129 -84 c-71 -45 -131 -83 -133 -83 -10 0 -254 161 -255 168 0 5 26 71 58 148 l57 139 159 -2 159 -3 42 -142z m-370 -260 l135 -88 0 -162 0 -162 -126 -75 -125 -76 -130 92 -129 93 -2 148 c-1 81 -2 154 -2 163 -1 10 43 41 119 84 66 38 121 69 123 69 2 1 63 -38 137 -86z m575 14 l135 -73 3 -166 2 -165 -140 -87 -141 -86 -131 73 -130 74 -2 165 -1 166 130 85 c72 47 132 86 135 86 3 0 66 -32 140 -72z m-990 -229 l0 -164 -55 -27 c-42 -21 -55 -23 -55 -12 0 8 -16 73 -35 144 l-36 130 33 106 32 107 58 -60 58 -60 0 -164z m1414 176 c31 -58 56 -109 56 -115 0 -23 -114 -279 -124 -279 -6 0 -47 11 -91 24 l-80 23 -2 164 -3 164 93 62 c50 34 93 62 94 62 1 1 26 -46 57 -105z m105 -116 c-11 -20 -18 -49 -21 -86 -1 -9 -5 -9 -12 -2 -10 10 6 72 26 98 16 19 20 14 7 -10z m-94 -249 c-31 -78 -57 -150 -58 -160 -1 -10 -5 -15 -11 -12 -5 4 -7 0 -4 -8 3 -8 -1 -24 -9 -34 -13 -18 -14 -17 -8 15 3 19 10 37 14 40 4 3 11 18 15 35 11 43 108 276 113 271 3 -2 -21 -68 -52 -147z m-1274 -101 l129 -93 60 -117 60 -116 -44 -26 c-25 -14 -47 -26 -50 -26 -12 0 -263 183 -277 203 -9 12 -39 66 -68 119 l-52 97 53 25 c29 14 55 25 56 25 2 1 62 -41 133 -91z m1098 57 c46 -14 86 -26 88 -28 2 -3 -11 -54 -29 -116 l-32 -111 -138 -92 -138 -91 -95 28 c-52 15 -95 33 -95 39 0 6 13 58 28 115 l28 103 140 88 c76 49 144 89 149 89 6 0 48 -11 94 -24z m-550 -77 l128 -72 -24 -85 c-13 -47 -26 -98 -30 -113 l-5 -28 -164 0 -163 0 -59 115 -58 115 115 69 c64 39 120 70 124 71 5 0 66 -32 136 -72z m167 -360 c40 -13 74 -25 74 -28 0 -3 -22 -13 -49 -23 -78 -27 -349 -24 -453 5 -43 13 -78 25 -78 29 0 3 15 13 33 22 26 13 67 16 215 16 163 1 192 -2 258 -21z" class=""></path>     </g> </svg>